<?xml version="1.0" encoding="UTF-8"?>
<svg id="Calque_1" data-name="Calque 1" xmlns="http://www.w3.org/2000/svg" viewBox="0 0 1920 1080">
  <defs>
    <style>
      .cls-1 {
        fill: #f09475;
      }

      .cls-2 {
        fill: #f5bb60;
      }

      .cls-3 {
        fill: #ee749d;
      }
    </style>
  </defs>
  <path d="M467.17,479.18c-12.45-22.52-29.93-40.41-52.44-53.67-22.52-13.26-48.84-19.9-79.01-19.9s-58.17,6.96-81.67,20.8c-23.54,13.88-41.72,33-54.57,57.31-12.9,24.32-19.32,52.36-19.32,84.13s6.55,58.17,19.61,81.67c13.06,23.54,31.36,41.84,54.86,54.9,23.54,13.06,50.56,19.61,81.1,19.61,23.74,0,45.24-4.46,64.52-13.31,19.32-8.8,35.58-20.88,48.88-36.15,9.01-10.4,16.25-21.57,21.74-33.61,3.77-8.27-2.54-17.64-11.63-17.64h-57.6c-4.38,0-8.39,2.29-10.73,6.02-4.67,7.37-10.89,13.59-18.67,18.71-9.87,6.43-22.23,9.62-37.09,9.62s-27.96-3.32-39.22-9.95c-11.26-6.63-19.98-16.05-26.2-28.33-5.16-10.11-8.19-21.66-9.05-34.68h212.51c6.84,0,12.4-5.44,12.65-12.28.04-1.02.04-2.09.04-3.11v-13.55c0-28.53-6.22-54.08-18.71-76.6ZM262.23,535.27c1.6-9.54,4.3-17.97,8.07-25.3,6.63-12.9,15.8-22.43,27.43-28.66,11.67-6.22,24.32-9.33,37.99-9.33,18.91,0,34.68,5.61,47.37,16.87,12.65,11.26,19.57,26.73,20.8,46.42h-141.65Z"/>
  <path d="M833.53,609.45h-62.19c-5.04,0-9.37,3.23-11.22,7.9-2.46,6.26-5.81,11.79-10.15,16.5-6.02,6.63-13.35,11.79-21.98,15.39-8.64,3.6-18.22,5.44-28.66,5.44s-20.18-2.01-29.23-6.06c-9.05-4.01-16.78-9.95-23.21-17.77-6.47-7.86-11.46-17.28-15.11-28.33-3.6-11.05-5.4-23.62-5.4-37.7,0-18.5,3.11-34.47,9.33-47.94,6.22-13.47,14.86-23.7,25.96-30.75,11.05-7.04,23.58-10.56,37.66-10.56,15.68,0,29.27,4.01,40.69,12.08,9.25,6.47,15.93,14.9,20.1,25.3,1.84,4.67,6.14,7.86,11.18,7.86h62.31c8.02,0,13.71-7.78,11.42-15.43-8.6-28.53-24.19-51.54-46.79-68.98-26.53-20.51-59.32-30.79-98.29-30.79-30.54,0-57.68,6.96-81.43,20.8-23.7,13.88-42.21,32.79-55.47,56.7-13.26,23.91-19.9,51.54-19.9,82.9s6.63,57.72,19.9,81.43c13.26,23.7,31.77,42.41,55.47,56.09,23.74,13.63,50.89,20.51,81.43,20.51,38.61,0,71.23-10.36,97.97-31.07,22.68-17.56,38.32-40.24,47-68.04,2.37-7.66-3.36-15.47-11.38-15.47Z"/>
  <path d="M1201.65,467.72c-8.84-20.06-21.94-35.45-39.22-46.1-17.28-10.64-38.56-16.01-63.91-16.01-22.11,0-41.51,4.83-58.17,14.49-16.7,9.62-30.09,22.31-40.12,37.99v-159.13c0-9.05-7.33-16.38-16.33-16.38h-48.72c-9.05,0-16.33,7.33-16.33,16.38v401.45c0,9.05,7.29,16.38,16.33,16.38h48.72c9.01,0,16.33-7.33,16.33-16.38v-144.64c0-16.87,3.11-31.44,9.33-43.72,6.26-12.24,14.78-21.62,25.63-28.04,10.89-6.43,22.93-9.66,36.19-9.66,21.7,0,37.58,6.55,47.65,19.61,10.03,13.06,15.07,31.65,15.07,55.8v150.66c0,9.05,7.33,16.38,16.33,16.38h48.1c9.05,0,16.38-7.33,16.38-16.38v-157.9c0-29.76-4.42-54.65-13.26-74.8Z"/>
  <path class="cls-2" d="M1715.35,487.87c-16.35-22.64-38.58-40.3-66.66-53.03-28.04-12.74-59.9-19.12-95.54-19.12-12.23,0-24.05.77-35.46,2.34-7.11.98-12.26,5.85-12.26,11.47v49.87c0,3.32.32,6.72,1.81,10.14,1.03,2.36,2.03,2.65,2.71,2.33,13.17-6.27,27.59-9.41,43.2-9.41s30.62,3.14,43.6,9.41c12.93,6.27,23.17,15.56,30.72,27.91,7.56,12.39,11.38,27.87,11.38,46.49s-3.83,34.22-11.38,46.76c-7.56,12.54-17.8,21.83-30.72,27.95-12.97,6.08-27.74,9.1-44.34,9.1-15.61,0-29.88-3.02-42.8-9.1-.31-.15-.73.14-1.2.61-2.09,2.12-3.03,4.8-2.97,7.47v54.27c0,5.5,5.03,10.25,11.99,11.2,11.24,1.53,22.91,2.28,34.99,2.28,35.64,0,67.61-6.39,95.94-19.12,28.29-12.74,50.66-30.39,67.01-53.03,16.36-22.61,24.51-48.73,24.51-78.39s-8.15-55.78-24.51-78.39Z"/>
  <path class="cls-1" d="M1477.19,486.14c6.34-3.2,14.79-8.3,21.9-8,5.98.25,7.67,11.06,7.19-8.01l-.85-53.71c0-5.65-6.06-10.04-12.86-9.29-24.26,2.65-46.72,8.89-67.38,18.72-28.34,13.47-50.66,32.14-67.01,56.09-.94,1.39-1.89,2.82-2.78,4.26-14.52,22.93-21.72,49.33-21.72,79.26s7.21,55.14,21.72,78.07c.89,1.39,1.84,2.82,2.78,4.22,16.35,23.95,38.58,42.62,66.66,56.09,20.7,9.94,43.32,16.23,67.89,18.82,6.74.71,12.69-3.7,12.69-9.29v-53.35c.93-20.78.46-7.14-8.51-9.01-7.05-1.47-13.7-3.97-20.08-7.14-12.97-6.47-23.21-16.29-30.77-29.56-7.56-13.26-11.33-29.76-11.33-49.45s3.78-36.07,11.33-49.17c7.56-13.06,17.95-22.88,31.12-29.52Z"/>
  <path class="cls-3" d="M1319.95,481.06c-16.35,23.91-24.51,51.75-24.51,83.52s8.15,58.38,24.51,82.29c10.18,14.92,22.66,27.78,37.39,38.6,5.63,4.13,14.55.85,14.55-5.35,0,0-18.35-74.59-18.35-116.1s18.35-116.1,18.35-116.1c0-6.2-8.92-9.48-14.55-5.36-14.77,10.81-27.26,23.64-37.4,38.51Z"/>
</svg>