<?xml version="1.0" encoding="UTF-8"?>
<svg id="Calque_1" data-name="Calque 1" xmlns="http://www.w3.org/2000/svg" viewBox="0 0 1920 600">
  <defs>
    <style>
      .cls-1 {
        fill: #ff8d6e;
      }

      .cls-2 {
        fill: #ff6b9d;
      }

      .cls-3 {
        fill: #ffb74c;
      }
    </style>
  </defs>
  <path d="M372.09,254.25c-14.85-26.86-35.7-48.2-62.56-64.02-26.86-15.82-58.26-23.73-94.26-23.73s-69.4,8.3-97.43,24.81c-28.08,16.56-49.76,39.36-65.1,68.37-15.38,29.01-23.05,62.46-23.05,100.36s7.81,69.4,23.39,97.43c15.58,28.08,37.41,49.91,65.44,65.49,28.08,15.58,60.31,23.39,96.75,23.39,28.33,0,53.96-5.32,76.97-15.87,23.05-10.5,42.44-24.91,58.31-43.12,10.74-12.4,19.39-25.74,25.93-40.09,4.49-9.87-3.03-21.05-13.87-21.05h-68.71c-5.23,0-10.01,2.73-12.8,7.18-5.57,8.79-12.99,16.21-22.27,22.32-11.77,7.67-26.52,11.48-44.25,11.48s-33.36-3.96-46.79-11.87c-13.43-7.91-23.83-19.14-31.26-33.79-6.15-12.06-9.77-25.83-10.79-41.36h253.51c8.16,0,14.8-6.5,15.09-14.65.05-1.22.05-2.49.05-3.71v-16.16c0-34.04-7.42-64.51-22.32-91.37ZM127.61,321.16c1.9-11.38,5.13-21.44,9.62-30.18,7.91-15.38,18.85-26.76,32.72-34.19,13.92-7.42,29.01-11.13,45.32-11.13,22.56,0,41.36,6.69,56.5,20.12,15.09,13.43,23.34,31.89,24.81,55.38H127.61Z"/>
  <path d="M809.13,409.65h-74.18c-6.01,0-11.18,3.86-13.38,9.43-2.93,7.47-6.93,14.07-12.11,19.68-7.18,7.91-15.92,14.07-26.23,18.36-10.3,4.3-21.73,6.5-34.19,6.5s-24.08-2.39-34.87-7.23c-10.79-4.79-20.02-11.87-27.69-21.2-7.72-9.38-13.67-20.61-18.02-33.79-4.3-13.19-6.45-28.18-6.45-44.98,0-22.07,3.71-41.12,11.13-57.19,7.42-16.07,17.73-28.28,30.96-36.68,13.19-8.4,28.13-12.6,44.93-12.6,18.7,0,34.92,4.79,48.54,14.41,11.04,7.72,19,17.78,23.98,30.18,2.2,5.57,7.33,9.38,13.33,9.38h74.33c9.57,0,16.36-9.28,13.63-18.41-10.26-34.04-28.86-61.49-55.82-82.29-31.65-24.47-70.76-36.73-117.26-36.73-36.43,0-68.81,8.3-97.14,24.81-28.28,16.56-50.35,39.12-66.17,67.64-15.82,28.52-23.73,61.49-23.73,98.89s7.91,68.86,23.73,97.14c15.82,28.28,37.9,50.6,66.17,66.91,28.33,16.26,60.7,24.47,97.14,24.47,46.05,0,84.98-12.36,116.87-37.07,27.06-20.95,45.71-48.01,56.06-81.17,2.83-9.13-4-18.46-13.58-18.46Z"/>
  <path d="M1248.27,240.58c-10.55-23.93-26.18-42.29-46.79-54.99-20.61-12.7-46-19.1-76.23-19.1-26.37,0-49.52,5.76-69.4,17.29-19.93,11.48-35.89,26.62-47.86,45.32V39.27c0-10.79-8.74-19.53-19.49-19.53h-58.12c-10.79,0-19.49,8.74-19.49,19.53v478.89c0,10.79,8.69,19.53,19.49,19.53h58.12c10.74,0,19.49-8.74,19.49-19.53v-172.54c0-20.12,3.71-37.51,11.13-52.16,7.47-14.6,17.63-25.79,30.57-33.45,12.99-7.67,27.35-11.53,43.17-11.53,25.88,0,44.83,7.81,56.85,23.39,11.97,15.58,17.97,37.75,17.97,66.56v179.72c0,10.79,8.74,19.53,19.49,19.53h57.38c10.79,0,19.53-8.74,19.53-19.53v-188.36c0-35.5-5.27-65.2-15.82-89.22Z"/>
  <path class="cls-3" d="M1861.07,264.61c-19.51-27.01-46.02-48.07-79.52-63.26-33.45-15.19-71.46-22.81-113.98-22.81-14.59,0-28.69.92-42.3,2.79-8.48,1.17-14.63,6.98-14.63,13.68v59.49c0,3.97.38,8.01,2.16,12.09,1.23,2.82,2.42,3.16,3.23,2.78,15.71-7.48,32.91-11.22,51.53-11.22s36.53,3.74,52.01,11.22c15.42,7.48,27.63,18.56,36.65,33.29,9.01,14.78,13.58,33.25,13.58,55.46s-4.57,40.82-13.58,55.78c-9.01,14.96-21.23,26.04-36.65,33.34-15.48,7.25-33.09,10.85-52.9,10.85-18.62,0-35.64-3.6-51.06-10.85-.37-.18-.88.17-1.43.73-2.49,2.53-3.62,5.72-3.55,8.91v64.74c0,6.56,6,12.23,14.3,13.36,13.41,1.83,27.33,2.72,41.73,2.72,42.52,0,80.65-7.62,114.45-22.81,33.74-15.19,60.43-36.25,79.94-63.26,19.51-26.97,29.24-58.14,29.24-93.51s-9.73-66.54-29.24-93.51Z"/>
  <path class="cls-1" d="M1576.96,262.55c7.56-3.82,17.65-9.9,26.13-9.54,7.13.3,9.15,13.19,8.57-9.56l-1.02-64.07c0-6.74-7.23-11.97-15.34-11.09-28.94,3.16-55.73,10.6-80.38,22.33-33.8,16.07-60.43,38.34-79.94,66.91-1.13,1.66-2.25,3.37-3.32,5.08-17.32,27.35-25.92,58.85-25.92,94.55s8.6,65.78,25.92,93.13c1.07,1.66,2.19,3.37,3.32,5.03,19.51,28.57,46.02,50.84,79.52,66.91,24.69,11.86,51.67,19.36,80.99,22.45,8.04.85,15.14-4.41,15.14-11.09v-63.64c1.11-24.79.55-8.52-10.15-10.75-8.41-1.76-16.35-4.74-23.95-8.52-15.48-7.72-27.69-19.44-36.71-35.26-9.01-15.82-13.52-35.5-13.52-58.99s4.51-43.03,13.52-58.65c9.01-15.58,21.41-27.3,37.12-35.21Z"/>
  <path class="cls-2" d="M1389.39,256.49c-19.51,28.52-29.24,61.73-29.24,99.63s9.73,69.64,29.24,98.16c12.14,17.8,27.03,33.14,44.61,46.05,6.71,4.93,17.36,1.02,17.36-6.39,0,0-21.89-88.98-21.89-138.5s21.89-138.5,21.89-138.5c0-7.4-10.64-11.31-17.35-6.39-17.62,12.89-32.51,28.2-44.62,45.94Z"/>
</svg>